<svg id="Layer_1" data-name="Layer 1" xmlns="http://www.w3.org/2000/svg" viewBox="0 0 979.91 979.91"><defs><style>.cls-1{fill:#444;}</style></defs><title>MK</title><path class="cls-1" d="M500,16A484.09,484.09,0,0,1,688.38,945.93,484.09,484.09,0,0,1,311.62,54.07,481,481,0,0,1,500,16m0-6C229.4,10,10,229.4,10,500S229.4,990,500,990,990,770.6,990,500,770.6,10,500,10Z" transform="translate(-10.04 -10.04)"/><path class="cls-1" d="M481.51,624.57H452.82V467.91l3.4-65.67h-.38L373.93,624.57H348.26L266.35,402.24H266l3.4,65.67V624.57H240.68V375.43h46.43L341.84,526.8l18.88,62.28h.75l19.25-61.9,54.36-151.75h46.43Z" transform="translate(-10.04 -10.04)"/><path class="cls-1" d="M637.78,499.25l-44.55,45.29v80H563V375.43h30.19V503.77L718.55,375.43h39.63L658.91,477l100.41,147.6H723.08Z" transform="translate(-10.04 -10.04)"/></svg>